<svg width="57" height="57" viewBox="0 0 57 57" fill="none" xmlns="http://www.w3.org/2000/svg">
<g opacity="0.7">
<path d="M51.9889 46.9853H50.873V33.2732C50.873 31.1432 49.1401 29.4102 47.01 29.4102H37.7455V26.4261C37.7455 24.1774 35.9155 22.3474 33.6663 22.3474H23.3337C21.0845 22.3474 19.2545 24.1774 19.2545 26.4261V34.3735H9.98996C7.85994 34.3735 6.12696 36.106 6.12696 38.236V46.9853H5.01107C2.24787 46.9853 0 49.2314 0 51.9924C0 54.7535 2.24787 57 5.01107 57H51.9889C54.7521 57 57 54.7535 57 51.9924C57 49.2314 54.7521 46.9853 51.9889 46.9853ZM47.01 32.7501C47.2984 32.7501 47.5332 32.9849 47.5332 33.2732V46.9744H37.7455V32.7501H47.01ZM22.5944 26.4261C22.5944 26.0186 22.9262 25.6873 23.3337 25.6873H33.6663C34.0738 25.6873 34.4056 26.0186 34.4056 26.4261V46.9744H22.5948V26.4261H22.5944ZM9.4668 38.236C9.4668 37.9477 9.70164 37.7133 9.98996 37.7133H19.2545V46.9744H9.4668V38.236ZM51.9889 53.6602H5.01107C4.08957 53.6602 3.33984 52.9122 3.33984 51.9924C3.33984 51.0731 4.08957 50.3251 5.01107 50.3251H51.9889C52.9104 50.3251 53.6602 51.0731 53.6602 51.9924C53.6602 52.9122 52.9104 53.6602 51.9889 53.6602Z" fill="white"/>
<path d="M19.8897 11.4929L21.3348 12.5414C21.4939 12.6571 21.56 12.8601 21.4996 13.0471L20.9477 14.7436C20.4302 16.3348 20.9703 17.9991 22.3241 18.9832C23.6792 19.9686 25.4309 19.9695 26.7872 18.9854L28.2319 17.9369C28.3924 17.8203 28.6081 17.8203 28.7685 17.9369L30.2132 18.9854C30.8911 19.4772 31.667 19.7229 32.4437 19.7229C33.2208 19.7229 33.9983 19.4763 34.6763 18.9832C36.0301 17.9991 36.5702 16.3348 36.0527 14.7436L35.5008 13.0471C35.4404 12.8601 35.5065 12.6571 35.6656 12.5414L37.1107 11.4929C38.4658 10.5092 39.0072 8.84493 38.4906 7.25329C37.9731 5.6599 36.5563 4.63055 34.8803 4.63055H33.0947C32.8964 4.63055 32.7224 4.50488 32.6615 4.31701L32.1097 2.62056C31.5917 1.02848 30.1749 0 28.5002 0C26.8255 0 25.4087 1.02848 24.8907 2.62056L24.3389 4.31701C24.278 4.50488 24.104 4.63055 23.9057 4.63055H22.1201C20.4441 4.63055 19.0273 5.6599 18.5098 7.25329C17.9932 8.84493 18.5346 10.5092 19.8897 11.4929ZM21.6866 8.28438C21.7544 8.07607 21.9001 7.9704 22.1201 7.9704H23.9057C25.5548 7.9704 27.0055 6.91756 27.5152 5.34984L28.0671 3.65339C28.1345 3.44552 28.2802 3.33984 28.5002 3.33984C28.7203 3.33984 28.8659 3.44552 28.9333 3.65339L29.4852 5.35027C29.9953 6.91756 31.4456 7.9704 33.0947 7.9704H34.8803C35.1003 7.9704 35.246 8.07607 35.3138 8.28438C35.3812 8.49138 35.3256 8.66185 35.149 8.7897L33.7039 9.83862C32.3693 10.8075 31.8148 12.5122 32.3249 14.08L32.8768 15.7768C32.9438 15.9838 32.8885 16.1539 32.712 16.2822C32.5337 16.4118 32.3532 16.4118 32.1749 16.2826L30.7302 15.2337C30.0631 14.7497 29.2817 14.5079 28.5002 14.5079C27.7187 14.5079 26.9373 14.7497 26.2702 15.2337L24.8255 16.2822C24.6472 16.4118 24.4663 16.4113 24.2884 16.2822C24.1119 16.1539 24.0566 15.9838 24.1236 15.7764L24.6755 14.08C25.1856 12.5118 24.6311 10.8075 23.2965 9.83819L21.8514 8.7897C21.6748 8.66142 21.6192 8.49138 21.6866 8.28438Z" fill="#44D7B6"/>
</g>
</svg>
