<svg width="50" height="58" viewBox="0 0 50 58" fill="none" xmlns="http://www.w3.org/2000/svg">
<g opacity="0.7">
<path d="M50 22.6241C50 17.3169 48.6199 0 30.8613 0C21.065 0 14.0397 2.53036 9.96851 7.52074C6.98203 11.3968 5.691 16.3164 6.38915 21.1595L0.672375 29.5947C0.236341 30.2408 0.0022487 31.0022 1.6067e-05 31.7817C-0.00612368 33.9518 1.74817 35.7161 3.91829 35.7223H6.87486C6.55928 38.6658 6.35812 45.0541 10.3292 46.3806C12.59 47.0094 14.9596 47.1446 17.2772 46.7771L14.3384 55.5885C14.298 55.71 14.2774 55.8371 14.2774 55.965C14.2775 56.6227 14.8108 57.1557 15.4684 57.1555H41.6647C41.7395 57.1556 41.8142 57.1488 41.8876 57.1349C42.5338 57.0133 42.9592 56.3907 42.8375 55.7444L42.7816 55.448C41.5087 48.3945 42.7295 41.1179 46.2347 34.8661C48.7342 30.3496 50 26.2308 50 22.6241ZM40.2502 54.774H17.1201L20.1672 45.6244C20.2386 45.4098 20.2475 45.1794 20.1926 44.96C20.0333 44.3219 19.387 43.9338 18.749 44.0931C18.699 44.1026 14.2695 45.1839 11.0782 44.1181C8.74436 43.3394 8.94686 37.4583 9.41125 34.7316C9.42252 34.6654 9.42821 34.5984 9.42821 34.5313C9.4281 33.8737 8.89484 33.3406 8.23721 33.3408H3.9184C3.06576 33.3408 2.37375 32.6514 2.37041 31.7989C2.36985 31.49 2.46284 31.1882 2.63709 30.9332L8.6277 22.105C8.80765 21.8383 8.87284 21.5106 8.80866 21.1953C8.10683 16.8985 9.19312 12.5015 11.8152 9.02599C15.4089 4.61664 21.8115 2.38166 30.8611 2.38166C45.9858 2.38166 47.6183 16.5384 47.6183 22.6242C47.6183 25.8226 46.4526 29.5543 44.1509 33.7136C40.5711 40.114 39.2002 47.5158 40.2502 54.774Z" fill="white"/>
<path d="M41.5089 19.4578C41.0754 19.9523 41.1249 20.7046 41.6194 21.1381C42.4029 21.8067 42.8545 22.7848 42.8554 23.8149C42.8554 25.7877 41.2561 27.3871 39.2832 27.3871C37.3103 27.3871 35.711 25.7877 35.711 23.8149C35.7119 22.7848 36.1635 21.8068 36.947 21.1381C37.2048 20.912 37.3527 20.5857 37.3529 20.2428C37.353 19.5851 36.8199 19.052 36.1623 19.0519H30.9481V13.8377C30.9481 13.4947 30.8002 13.1684 30.5422 12.9424C30.0477 12.5089 29.2954 12.5584 28.8619 13.0529C28.1932 13.8363 27.2151 14.288 26.1851 14.2889C24.2122 14.2889 22.6129 12.6895 22.6129 10.7167C22.6129 8.7438 24.2122 7.14445 26.1851 7.14445C27.2151 7.14534 28.1931 7.59701 28.8619 8.38044C29.088 8.63831 29.4143 8.78622 29.7572 8.78633C30.4148 8.78644 30.948 8.2534 30.9481 7.59578V2.37793L28.5665 2.43332V5.27027C27.8169 4.93637 27.0056 4.76357 26.1851 4.76301C22.897 4.76301 20.2314 7.42855 20.2314 10.7167C20.2314 14.0048 22.897 16.6703 26.1851 16.6703C27.0057 16.6698 27.817 16.497 28.5665 16.1631V20.2425C28.5665 20.9002 29.0997 21.4333 29.7573 21.4333H33.8368C33.5029 22.1829 33.3301 22.9943 33.3295 23.8148C33.3334 27.1013 35.9968 29.7645 39.2832 29.7684C42.5697 29.7645 45.2329 27.1012 45.2369 23.8148C45.2363 22.9942 45.0635 22.1828 44.7296 21.4333H47.6028L47.4269 19.0519H42.4042C42.0613 19.0519 41.735 19.1998 41.5089 19.4578Z" fill="#44D7B6"/>
<path d="M36.2432 4.89392L35.1787 7.02531C36.9827 7.9207 41.6646 10.9857 41.6646 14.2889H44.0461C44.0462 8.85317 36.5624 5.04753 36.2432 4.89392Z" fill="#44D7B6"/>
<path d="M26.1854 26.1963C23.5549 26.1963 21.4224 28.3287 21.4224 30.9593H23.8038C23.8038 29.644 24.87 28.5778 26.1852 28.5778C27.5005 28.5778 28.5667 29.644 28.5667 30.9593H30.9481C30.9482 28.3287 28.8158 26.1963 26.1854 26.1963Z" fill="#44D7B6"/>
<path d="M29.7573 19.0519H18.4013C18.8191 18.3282 19.0391 17.5074 19.0393 16.6717C19.04 14.0412 16.9082 11.9081 14.2777 11.9075V14.2889C15.5929 14.2889 16.6591 15.3551 16.6591 16.6704C16.6591 17.9856 15.5929 19.0518 14.2777 19.0518C13.6201 19.0518 13.0869 19.5849 13.0869 20.2426C13.0869 20.9002 13.6201 21.4333 14.2777 21.4333H28.5666V30.9592H30.948V20.2426C30.948 19.5849 30.415 19.0519 29.7573 19.0519Z" fill="#44D7B6"/>
<path d="M30.9483 33.3412H28.5669V35.7226H30.9483V33.3412Z" fill="#44D7B6"/>
<path d="M30.9483 38.1034H28.5669V40.4848H30.9483V38.1034Z" fill="#44D7B6"/>
<path d="M16.6593 22.6244H14.2778V25.0058H16.6593V22.6244Z" fill="#44D7B6"/>
<path d="M16.6593 27.3866H14.2778V29.768H16.6593V27.3866Z" fill="#44D7B6"/>
<path d="M38.0688 44.2944L35.7349 43.8287C35.0057 47.9213 35.0057 52.1104 35.7349 56.2029L38.0688 55.7362C37.413 51.9504 37.413 48.0801 38.0688 44.2944Z" fill="white"/>
<path d="M33.294 47.9176L30.984 47.3401C30.9317 47.5485 29.7243 52.4841 31.009 56.3408L33.269 55.5883C32.2045 52.3959 33.2833 47.9617 33.294 47.9176Z" fill="white"/>
</g>
</svg>
