<svg width="57" height="57" viewBox="0 0 57 57" fill="none" xmlns="http://www.w3.org/2000/svg">
<g opacity="0.7">
<path d="M23.352 10.3955L22.7088 14.1464C22.6014 14.7729 22.859 15.406 23.3732 15.7796C23.6641 15.991 24.0087 16.0985 24.3549 16.0985C24.6208 16.0985 24.8876 16.0351 25.1319 15.9066L28.5 14.1358L31.8686 15.9068C32.1129 16.0351 32.3798 16.0986 32.6454 16.0986H32.6501C33.5712 16.0974 34.3178 15.3501 34.3178 14.4287C34.3178 14.3005 34.3033 14.1755 34.276 14.0555L33.6479 10.3954L36.373 7.7392C36.8282 7.29556 36.9921 6.63193 36.7956 6.02742C36.5992 5.42279 36.0766 4.98216 35.4476 4.89087L31.682 4.34358L29.9975 0.930703C29.7161 0.360814 29.1356 0 28.4999 0C27.8643 0 27.2837 0.360926 27.0025 0.930926L25.3186 4.34347L21.5523 4.89076C20.9233 4.98205 20.4008 5.42268 20.2044 6.02731C20.0079 6.63182 20.1718 7.29544 20.6269 7.73909L23.352 10.3955ZM26.6676 7.52233C27.2116 7.44329 27.6817 7.10173 27.925 6.60877L28.5002 5.44317L29.0757 6.60888C29.3189 7.10173 29.7889 7.44329 30.3329 7.52233L31.619 7.70925L30.6883 8.61658C30.2946 9.00021 30.115 9.55296 30.208 10.0947L30.4279 11.3757L29.2773 10.7708C28.7906 10.5151 28.2094 10.5149 27.723 10.7709L26.5727 11.3757L26.7923 10.0946C26.8853 9.55285 26.7056 9.0001 26.3121 8.61658L25.3814 7.70936L26.6676 7.52233Z" fill="#44D7B6"/>
<path d="M51.1723 39.0646C53.6172 37.2978 55.2113 34.4234 55.2113 31.1831C55.2113 25.8239 50.8515 21.4641 45.4923 21.4641C41.843 21.4641 38.6575 23.4862 36.9961 26.4684C35.3347 23.4862 32.1493 21.4641 28.5 21.4641C24.8507 21.4641 21.6652 23.4862 20.0039 26.4684C18.3424 23.4862 15.157 21.4641 11.5077 21.4641C6.14865 21.4641 1.78871 25.8239 1.78871 31.1831C1.78871 34.4233 3.38293 37.2978 5.8278 39.0646C2.35014 41.0465 0 44.7887 0 49.0698V50.8584C0 54.2449 2.75515 56.9999 6.14164 56.9999H16.8736C17.9901 56.9999 19.0643 56.7002 20.0038 56.1396C20.9211 56.6853 21.9913 56.9999 23.134 56.9999H33.866C35.0087 56.9999 36.0788 56.6853 36.9961 56.1396C37.9356 56.7004 39.0098 56.9999 40.1263 56.9999H50.8582C54.2449 56.9999 57 54.2449 57 50.8584V49.0698C57 44.7887 54.65 41.0465 51.1723 39.0646ZM45.4925 24.804C49.01 24.804 51.8716 27.6655 51.8716 31.1831C51.8716 34.7006 49.01 37.5622 45.4925 37.5622C41.9749 37.5622 39.1132 34.7006 39.1132 31.1831C39.1132 27.6655 41.9749 24.804 45.4925 24.804ZM36.9961 35.8976C37.6938 37.1498 38.6599 38.2327 39.8167 39.0676C38.7696 39.6619 37.8154 40.4193 36.9947 41.3151C36.1824 40.4261 35.2328 39.6648 34.1799 39.0646C35.3348 38.23 36.2994 37.1484 36.9961 35.8976ZM28.5 24.804C32.0175 24.804 34.8791 27.6655 34.8791 31.1831C34.8791 34.7006 32.0175 37.5622 28.5 37.5622C24.9826 37.5622 22.1209 34.7006 22.1209 31.1831C22.1209 27.6655 24.9826 24.804 28.5 24.804ZM20.0039 35.8976C20.7007 37.1482 21.6653 38.2299 22.8202 39.0645C21.7672 39.6647 20.8176 40.4258 20.0053 41.3149C19.1845 40.4192 18.2304 39.6618 17.1833 39.0675C18.34 38.2327 19.3062 37.1498 20.0039 35.8976ZM5.12844 31.1831C5.12844 27.6655 7.99013 24.804 11.5075 24.804C15.0251 24.804 17.8868 27.6655 17.8868 31.1831C17.8868 34.7006 15.0251 37.5622 11.5075 37.5622C7.99013 37.562 5.12844 34.7005 5.12844 31.1831ZM6.14164 53.6601C4.59674 53.6601 3.33984 52.4033 3.33984 50.8584V49.0698C3.33984 44.566 7.00387 40.902 11.5075 40.902C14.0991 40.902 16.5401 42.1503 18.071 44.209C17.3797 45.6866 16.9923 47.3337 16.9923 49.0698V50.8584C16.9923 51.8265 17.2182 52.7425 17.619 53.5579C17.3787 53.6248 17.1285 53.6601 16.8736 53.6601H6.14164ZM23.134 53.6601C22.3945 53.6601 21.7215 53.3716 21.2204 52.902C21.2116 52.8926 21.204 52.8825 21.195 52.8733C21.1744 52.8523 21.1522 52.834 21.1309 52.8144C20.6373 52.3091 20.3324 51.6189 20.3324 50.8584V49.0698C20.3324 44.566 23.9964 40.902 28.5001 40.902C33.0038 40.902 36.6678 44.566 36.6678 49.0698V50.8584C36.6678 51.6164 36.3648 52.3046 35.8742 52.8093C35.8509 52.8305 35.8271 52.8505 35.8048 52.8731C35.7944 52.8836 35.7859 52.8949 35.7759 52.9056C35.275 53.3732 34.6036 53.6601 33.866 53.6601H23.134ZM53.6602 50.8584C53.6602 52.4033 52.4033 53.6601 50.8584 53.6601H40.1264C39.8715 53.6601 39.6213 53.6248 39.381 53.5579C39.7818 52.7425 40.0077 51.8265 40.0077 50.8584V49.0698C40.0077 47.3338 39.6205 45.6867 38.9291 44.2092C40.4596 42.1503 42.9007 40.902 45.4925 40.902C49.9961 40.902 53.6602 44.566 53.6602 49.0698V50.8584Z" fill="white"/>
</g>
</svg>
