<svg width="53" height="53" viewBox="0 0 53 53" fill="none" xmlns="http://www.w3.org/2000/svg">
<g opacity="0.7">
<path d="M52.7706 1.59759C52.6906 0.875808 52.1208 0.305663 51.3986 0.2256C39.111 -1.13911 28.6365 3.77627 20.0924 12.5715C17.6473 15.0886 15.5264 17.7529 13.7161 20.3242C10.6523 20.1997 7.25526 21.5858 4.8469 23.9942L0.454762 28.3863C-0.0421947 28.8833 -0.143284 29.6524 0.208103 30.2609C0.55949 30.8695 1.27561 31.1659 1.95493 30.9843C2.97391 30.7106 4.62976 30.3923 6.22051 30.3183C6.80197 30.2913 7.28518 30.2997 7.68671 30.3305C6.71746 32.1946 5.97466 33.7562 5.7284 34.1472C5.34264 34.761 5.43201 35.5596 5.94473 36.0724L8.48612 38.6138C4.78746 43.6581 4.7264 46.2416 4.73934 46.6075C4.76643 47.3827 5.37095 48.1089 6.37214 48.1089C7.23908 48.1089 9.72548 47.7409 14.2519 44.3795L16.9251 47.0527C17.4414 47.5691 18.2481 47.6556 18.8628 47.261C19.2809 46.9921 20.7507 46.2804 22.5133 45.3593C22.5424 46.673 22.3641 48.6022 21.9771 51.2172C21.7572 52.7004 23.5602 53.5932 24.6111 52.5427L29.0033 48.1505C31.2681 45.8857 32.5814 42.5219 32.4844 39.3663C35.1932 37.4735 38.0112 35.2406 40.6423 32.6604C49.3538 24.1175 54.118 13.7223 52.7706 1.59759ZM49.8002 3.19561C50.0481 6.5437 49.7836 9.78908 49.0133 12.9297C47.1003 12.3272 45.2302 11.1437 43.5412 9.45508C41.8461 7.7596 40.6601 5.88176 40.06 3.96187C43.1995 3.20289 46.4469 2.94572 49.8002 3.19561ZM6.01792 27.2153L7.04257 26.1903C8.28192 24.9513 9.8937 24.0589 11.4966 23.6578C10.6591 24.9869 9.9127 26.2562 9.25441 27.4276C8.23744 27.2032 7.10686 27.1615 6.01792 27.2153ZM8.95639 34.6923C9.29242 34.0291 9.6988 33.1978 10.4448 31.7882L12.4889 33.8326C11.7283 34.6486 11.0417 35.4238 10.423 36.1585L8.95639 34.6923ZM16.5498 34.0983C17.6812 32.9673 18.7661 32.7607 20.1139 32.7316C20.0843 34.0449 19.8737 35.1666 18.7459 36.2944C13.9251 41.1151 10.6207 43.2679 8.64463 44.2287C9.61954 42.2146 11.778 38.8701 16.5498 34.0983ZM18.2963 44.0322L16.695 42.4305C17.4261 41.8094 18.1988 41.1208 19.014 40.3573L21.1898 42.5332C19.7592 43.297 19.1624 43.5845 18.2963 44.0322ZM26.8068 45.9545L25.5638 47.1979C25.6645 45.6916 25.6297 44.5942 25.4874 43.7475C26.6293 43.1046 27.8694 42.3755 29.1691 41.5599C28.7987 43.2016 27.9661 44.7956 26.8068 45.9545ZM24.0167 40.9683L21.2327 38.1839C23.2929 35.9171 23.2161 33.7327 23.2161 31.1808C23.2161 30.3232 22.521 29.6281 21.6634 29.6281C19.2793 29.6281 16.9849 29.5003 14.6603 31.6119L12.0016 28.9532C19.2615 16.2228 27.6531 8.16315 37.0815 4.84418C37.828 7.25941 39.2808 9.58649 41.3455 11.6511C43.4004 13.7065 45.7166 15.1557 48.1213 15.905C44.7829 25.2817 36.7253 33.668 24.0167 40.9683Z" fill="white"/>
<path d="M39.1491 13.8467C36.1216 10.8197 31.1957 10.8197 28.1687 13.8467C25.1417 16.8741 25.1417 21.8 28.1687 24.827C31.1957 27.8541 36.1216 27.8545 39.1491 24.827C42.1761 21.8 42.1761 16.8741 39.1491 13.8467ZM36.953 22.631C35.1366 24.4473 32.1807 24.4473 30.3648 22.631C28.5484 20.8146 28.5484 17.8591 30.3648 16.0428C32.1807 14.2268 35.1362 14.2264 36.953 16.0428C38.7694 17.8591 38.7694 20.8146 36.953 22.631Z" fill="#44D7B6"/>
</g>
</svg>
