<svg width="183" height="114" viewBox="0 0 183 114" fill="none" xmlns="http://www.w3.org/2000/svg">
<path opacity="0.13" fill-rule="evenodd" clip-rule="evenodd" d="M63.4218 75.0397L63.4423 75.0113C66.4739 70.8186 68.259 64.9858 68.259 57C68.259 49.0142 66.4739 43.1814 63.4423 38.9887L63.4218 38.9603L63.4016 38.9317C60.738 35.1558 57.1151 33.238 51.748 33.238C46.3917 33.238 42.6939 35.1521 39.9288 38.9607C36.9786 43.1584 35.2371 49.0048 35.2371 57C35.2371 64.9953 36.9787 70.8418 39.929 75.0395C42.694 78.8479 46.3918 80.762 51.748 80.762C57.1151 80.762 60.738 78.8441 63.4016 75.0683L63.4218 75.0397ZM35.0464 35.4731C39.016 29.983 44.5833 27.238 51.748 27.238C58.9128 27.238 64.4316 29.983 68.3045 35.4731C72.2741 40.9632 74.259 48.1388 74.259 57C74.259 65.8612 72.2741 73.0368 68.3045 78.5269C64.4316 84.017 58.9128 86.762 51.748 86.762C44.5833 86.762 39.016 84.017 35.0464 78.5269C31.1735 73.0368 29.2371 65.8612 29.2371 57C29.2371 48.1388 31.1735 40.9632 35.0464 35.4731ZM106.418 19.0028L138.659 7.87819H153.327V86.3286H176.274V106.122H104.965V86.3286H129.655V34.0283L106.418 41.1076V19.0028ZM123.655 42.1285V80.3286H99.7998C102.286 73.2781 103.496 65.4756 103.496 57C103.496 54.0523 103.35 51.1861 103.054 48.4046L123.655 42.1285ZM100.418 35.5218C98.1414 28.3076 94.5825 21.8456 89.6738 16.2156C80.1589 5.30261 67.2864 0 51.748 0C36.2097 0 23.3371 5.30261 13.8223 16.2156C4.4514 26.9634 0 40.7434 0 57C0 73.2566 4.4514 87.0366 13.8223 97.7844C23.3371 108.697 36.2097 114 51.748 114C67.2864 114 80.1589 108.697 89.6738 97.7844C93.6407 93.2346 96.726 88.1414 98.9653 82.547V112.122H182.274V80.3286H159.327V1.87819H137.653L100.418 14.726V35.5218ZM51.748 6C37.709 6 26.5745 10.7195 18.3447 20.1586C10.1149 29.5977 6 41.8782 6 57C6 72.1218 10.1149 84.4023 18.3447 93.8414C26.5745 103.28 37.709 108 51.748 108C65.7871 108 76.9215 103.28 85.1514 93.8414C93.3812 84.4023 97.4961 72.1218 97.4961 57C97.4961 41.8782 93.3812 29.5977 85.1514 20.1586C76.9215 10.7195 65.7871 6 51.748 6Z" fill="white"/>
</svg>
