<svg width="188" height="114" viewBox="0 0 188 114" fill="none" xmlns="http://www.w3.org/2000/svg">
<path opacity="0.13" fill-rule="evenodd" clip-rule="evenodd" d="M70.0727 35.4731C66.09 29.983 60.4145 27.238 53.0464 27.238C45.6783 27.238 39.9531 29.983 35.8707 35.4731C31.888 40.9632 29.8966 48.1388 29.8966 57C29.8966 65.8612 31.888 73.0368 35.8707 78.5269C39.9531 84.017 45.6783 86.762 53.0464 86.762C60.4145 86.762 66.09 84.017 70.0727 78.5269C74.155 73.0368 76.1962 65.8612 76.1962 57C76.1962 48.1388 74.155 40.9632 70.0727 35.4731ZM40.7065 74.9749C43.5571 78.7927 47.4195 80.762 53.0464 80.762C58.6857 80.762 62.471 78.7877 65.2161 75.0037L65.2368 74.9751L65.2579 74.9467C68.3705 70.7608 70.1962 64.9529 70.1962 57C70.1962 49.047 68.3705 43.2392 65.2579 39.0533L65.2368 39.0249L65.2161 38.9963C62.471 35.2123 58.6857 33.238 53.0464 33.238C47.4195 33.238 43.5571 35.2073 40.7065 39.0251C37.6782 43.2149 35.8966 49.0363 35.8966 57C35.8966 64.9637 37.6782 70.7851 40.7065 74.9749ZM162.9 66.9688L144.977 86.3286H181.27V106.122H108.833V94.4193L143.035 56.2776C146.421 52.4249 148.711 49.7762 149.906 48.3314C151.2 46.7904 152.445 44.864 153.64 42.5524C154.934 40.2408 155.581 38.17 155.581 36.3399C155.581 33.6431 154.585 31.3796 152.594 29.5496C150.603 27.6232 147.665 26.6601 143.782 26.6601C139.899 26.6601 136.862 27.7677 134.672 29.983C132.481 32.102 131.187 35.136 130.788 39.085H106.743C106.804 36.9941 107.001 34.9941 107.333 33.085C108.625 25.6721 111.963 19.6296 117.347 14.9575C124.117 8.98583 133.278 6 144.828 6C156.079 6 164.841 8.84136 171.114 14.5241C177.387 20.2068 180.523 27.5269 180.523 36.4844C180.523 41.0113 179.179 45.4901 176.491 49.9207C173.802 54.3513 169.272 60.034 162.9 66.9688ZM113.396 10.4419C121.539 3.26872 132.245 0 144.828 0C157.068 0 167.444 3.10381 175.142 10.0774C182.751 16.9703 186.523 25.9442 186.523 36.4844C186.523 42.2604 184.794 47.8028 181.62 53.0332C178.624 57.9712 173.779 63.9972 167.318 71.0285L167.31 71.0367L158.708 80.3286H187.27V112.122H102.833V92.1231L138.548 52.2949C141.928 48.448 144.155 45.8707 145.282 44.5076L145.297 44.49L145.311 44.4725C146.252 43.3531 147.262 41.8231 148.309 39.7974L148.355 39.7084L148.404 39.621C149.407 37.8297 149.581 36.7854 149.581 36.3399C149.581 35.3277 149.293 34.6649 148.534 33.9674L148.478 33.9154L148.422 33.862C147.934 33.3892 146.74 32.6601 143.782 32.6601C141.084 32.6601 139.738 33.3928 138.938 34.2017L138.891 34.2491L138.843 34.2955C137.946 35.1633 137.058 36.715 136.758 39.6871L136.214 45.085H105.198C105.797 48.8898 106.093 52.8645 106.093 57C106.093 73.2995 101.499 87.102 91.865 97.8468C82.0996 108.738 68.9267 114 53.0464 114C37.1661 114 23.9932 108.738 14.2278 97.8468C4.59368 87.102 0 73.2995 0 57C0 40.7005 4.59368 26.898 14.2278 16.1532C23.9932 5.26197 37.1661 0 53.0464 0C68.9267 0 82.0996 5.26197 91.865 16.1532C95.9915 20.7555 99.1933 25.9187 101.506 31.5989C103.066 23.182 106.975 16.0212 113.396 10.4419ZM53.0464 6C38.6089 6 27.1584 10.7195 18.6951 20.1586C10.2317 29.5977 6 41.8782 6 57C6 72.1218 10.2317 84.4023 18.6951 93.8414C27.1584 103.28 38.6089 108 53.0464 108C67.4839 108 78.9344 103.28 87.3977 93.8414C95.8611 84.4023 100.093 72.1218 100.093 57C100.093 41.8782 95.8611 29.5977 87.3977 20.1586C78.9344 10.7195 67.4839 6 53.0464 6Z" fill="white"/>
</svg>
