<svg width="193" height="114" viewBox="0 0 193 114" fill="none" xmlns="http://www.w3.org/2000/svg">
<path opacity="0.13" fill-rule="evenodd" clip-rule="evenodd" d="M70.8557 35.4731C66.8242 29.983 61.0794 27.238 53.6213 27.238C46.1631 27.238 40.368 29.983 36.2357 35.4731C32.2043 40.9632 30.1886 48.1388 30.1886 57C30.1886 65.8612 32.2043 73.0368 36.2357 78.5269C40.368 84.017 46.1631 86.762 53.6213 86.762C61.0794 86.762 66.8242 84.017 70.8557 78.5269C74.9879 73.0368 77.054 65.8612 77.054 57C77.054 48.1388 74.9879 40.9632 70.8557 35.4731ZM41.0508 74.9468C43.94 78.7696 47.8758 80.762 53.6213 80.762C59.38 80.762 63.2375 78.7642 66.0195 74.9756L66.0405 74.9471L66.0618 74.9187C69.2105 70.7354 71.054 64.9383 71.054 57C71.054 49.0617 69.2105 43.2646 66.0618 39.0813L66.0405 39.0529L66.0195 39.0243C63.2375 35.2358 59.38 33.238 53.6213 33.238C47.8758 33.238 43.9399 35.2304 41.0508 39.0532C37.9877 43.2399 36.1886 49.0505 36.1886 57C36.1886 64.9496 37.9878 70.7602 41.0508 74.9468ZM110.791 31.4957C112.328 24.8608 115.718 19.2998 120.961 14.813C127.814 8.93768 136.784 6 147.871 6C158.554 6 167.121 8.84136 173.571 14.5241C180.122 20.2068 183.398 27.5751 183.398 36.6289C183.398 43.2638 181.287 48.6573 177.065 52.8093C175.526 54.3231 173.706 55.6718 171.606 56.8555C173.856 57.8088 175.847 58.9125 177.579 60.1668C183.373 64.3621 186.27 70.2414 186.27 77.8045C186.27 86.5694 182.742 93.7932 175.687 99.4759C168.632 105.159 159.612 108 148.626 108C137.439 108 128.268 105.303 121.112 99.9093C115.609 95.6271 111.884 90.1144 109.938 83.3711C109.389 81.469 108.981 79.469 108.715 77.3711H132.602C133.206 80.7422 134.92 83.4391 137.742 85.4618C140.664 87.3881 144.293 88.3513 148.626 88.3513C152.759 88.3513 156.135 87.3399 158.755 85.3173C161.477 83.2946 162.837 80.6459 162.837 77.3711C162.837 74 161.376 71.3513 158.453 69.4249C155.631 67.4023 151.751 66.3909 146.812 66.3909H138.346V48.4759H146.812C151.045 48.4759 154.371 47.4646 156.79 45.4419C159.31 43.3229 160.57 40.5779 160.57 37.2068C160.57 33.8357 159.36 31.1388 156.941 29.1161C154.623 27.0935 151.549 26.0822 147.719 26.0822C143.688 26.0822 140.412 27.1416 137.893 29.2606C135.373 31.2833 133.962 34.0283 133.66 37.4958H109.925C110.06 35.4067 110.349 33.4067 110.791 31.4957ZM152.934 40.8448C154.057 39.8983 154.57 38.8526 154.57 37.2068C154.57 35.4726 154.044 34.5146 153.092 33.719L153.044 33.6785L152.997 33.6371C152.02 32.7851 150.467 32.0822 147.719 32.0822C144.772 32.0822 142.965 32.8344 141.755 33.8526L141.702 33.8967L141.649 33.9395C140.512 34.8525 139.809 36.0403 139.637 38.017L139.248 42.4759H146.812C150.115 42.4759 151.915 41.6944 152.934 40.8448ZM132.346 43.4958H106.066C106.854 47.7788 107.243 52.2848 107.243 57C107.243 62.0344 106.799 66.8303 105.9 71.3711H132.346V43.4958ZM137.804 72.3909L138.507 76.3117C138.825 78.0848 139.632 79.4039 141.142 80.516C142.867 81.6218 145.251 82.3513 148.626 82.3513C151.768 82.3513 153.757 81.596 155.089 80.5676L155.132 80.5343L155.176 80.5018C156.438 79.5641 156.837 78.6707 156.837 77.3711C156.837 76.1086 156.467 75.3021 155.151 74.4347L155.053 74.3701L154.958 74.3016C153.504 73.2595 151.008 72.3909 146.812 72.3909H137.804ZM103.197 80.9006C100.821 87.1876 97.3818 92.8643 92.8354 97.8737C82.9598 108.755 69.6541 114 53.6213 114C37.5884 114 24.2828 108.755 14.4072 97.8737C4.657 87.1307 0 73.3187 0 57C0 40.6813 4.657 26.8693 14.4072 16.1263C24.2828 5.2451 37.5884 0 53.6213 0C69.6541 0 82.9598 5.2451 92.8354 16.1263L88.3924 20.1586C79.8256 10.7195 68.2352 6 53.6213 6C39.0074 6 27.417 10.7195 18.8502 20.1586C10.2834 29.5977 6 41.8782 6 57C6 72.1218 10.2834 84.4023 18.8502 93.8414C27.417 103.28 39.0074 108 53.6213 108C68.2352 108 79.8256 103.28 88.3924 93.8414C96.9592 84.4023 101.243 72.1218 101.243 57C101.243 41.8782 96.9592 29.5977 88.3924 20.1586L92.8354 16.1263C97.9683 21.7819 101.69 28.288 104.063 35.5627C105.066 25.3836 109.39 16.8202 117.056 10.2578M103.197 80.9006C105.014 90.6267 109.739 98.6615 117.427 104.645L117.464 104.673L117.5 104.701C125.932 111.056 136.465 114 148.626 114C160.68 114 171.117 110.862 179.451 104.149C187.865 97.3712 192.27 88.4546 192.27 77.8045C192.27 71.8553 190.773 66.4063 187.519 61.7582C186.034 59.6358 184.244 57.7687 182.192 56.1373C186.949 50.9946 189.398 44.405 189.398 36.6289C189.398 25.9307 185.438 16.8828 177.519 10.0062C169.728 3.15071 159.637 0 147.871 0C135.692 0 125.231 3.25025 117.058 10.2562" fill="white"/>
</svg>
