<svg width="202" height="114" viewBox="0 0 202 114" fill="none" xmlns="http://www.w3.org/2000/svg">
<path opacity="0.13" fill-rule="evenodd" clip-rule="evenodd" d="M65.0752 74.9808L65.0962 74.9524C68.2016 70.7659 70.0237 64.9559 70.0237 57C70.0237 49.0441 68.2016 43.2341 65.0962 39.0476L65.0752 39.0192L65.0545 38.9906C62.3167 35.2074 58.546 33.238 52.9308 33.238C47.3278 33.238 43.4801 35.2026 40.6372 39.0195C37.6159 43.2099 35.8379 49.0335 35.8379 57C35.8379 64.9665 37.6159 70.7901 40.6372 74.9805C43.4801 78.7974 47.3278 80.762 52.9308 80.762C58.546 80.762 62.3167 78.7926 65.0545 75.0094L65.0752 74.9808ZM35.7973 78.5269C31.8243 73.0368 29.8379 65.8612 29.8379 57C29.8379 48.1388 31.8243 40.9632 35.7973 35.4731C39.8696 29.983 45.5808 27.238 52.9308 27.238C60.2808 27.238 65.9423 29.983 69.9152 35.4731C73.9875 40.9632 76.0237 48.1388 76.0237 57C76.0237 65.8612 73.9875 73.0368 69.9152 78.5269C65.9423 84.017 60.2808 86.762 52.9308 86.762C45.5808 86.762 39.8696 84.017 35.7973 78.5269ZM201.27 62.4136V94.7847H188.606V112.122H152.917V94.7847H101.368V82.1945C99.0556 87.9536 95.8351 93.1844 91.6698 97.8414C81.9267 108.735 68.7805 114 52.9308 114C37.081 114 23.9349 108.735 14.1917 97.8414C4.58097 87.0962 0 73.2957 0 57C0 40.7043 4.58097 26.9038 14.1917 16.1586C23.9349 5.26544 37.081 0 52.9308 0C68.7805 0 81.9267 5.26544 91.6698 16.1586C101.281 26.9038 105.862 40.7043 105.862 57C105.862 58.7123 105.811 60.397 105.709 62.0536L130.94 1.87819H167.877L154.678 35.3966H188.606V62.4136H201.27ZM152.917 39.8689L144.04 62.4136H152.917V39.8689ZM158.917 68.4136H135.228L159.066 7.87819H134.93L107.368 73.6147V88.7847H158.917V106.122H182.606V88.7847H195.27V68.4136H182.606V41.3966H158.917V68.4136ZM52.9308 6C38.5287 6 27.1064 10.7195 18.6639 20.1586C10.2213 29.5977 6 41.8782 6 57C6 72.1218 10.2213 84.4023 18.6639 93.8414C27.1064 103.28 38.5287 108 52.9308 108C67.3328 108 78.7551 103.28 87.1977 93.8414C95.6403 84.4023 99.8616 72.1218 99.8616 57C99.8616 41.8782 95.6403 29.5977 87.1977 20.1586C78.7551 10.7195 67.3328 6 52.9308 6Z" fill="white"/>
</svg>
