<svg width="1435" height="355" viewBox="0 0 1435 355" fill="none" xmlns="http://www.w3.org/2000/svg">
<g clip-path="url(#clip0)">
<path d="M428 495C461.5 464.833 511.901 439.8 523.5 329C530.5 256.5 521.5 185.5 583.5 142C645.5 98.5 778 110 809 110H1434V21H696C632.334 24.3333 496.901 54.6 464.5 149C424 267 453 370.5 408.5 423C390.834 434.167 340.1 445.5 278.5 445.5C216.901 445.5 261.167 495 216 495H428Z" fill="#1D2022"/>
<rect width="740" height="152" transform="matrix(-1 0 0 1 1435 0)" fill="url(#paint0_linear)"/>
</g>
<defs>
<linearGradient id="paint0_linear" x1="161.166" y1="76" x2="749.602" y2="65.0515" gradientUnits="userSpaceOnUse">
<stop/>
<stop offset="1" stop-opacity="0"/>
</linearGradient>
<clipPath id="clip0">
<rect width="1435" height="355" fill="white"/>
</clipPath>
</defs>
</svg>
