<svg width="257" height="165" viewBox="0 0 257 165" fill="none" xmlns="http://www.w3.org/2000/svg">
<rect x="84" y="158" width="7" height="7" fill="#44D7B6"/>
<rect y="52" width="7" height="7" fill="white"/>
<rect opacity="0.2" x="1" y="106" width="6" height="6" fill="white"/>
<rect opacity="0.2" x="1" y="159" width="6" height="6" fill="white"/>
<rect opacity="0.2" x="126" y="159" width="6" height="6" fill="white"/>
<rect opacity="0.2" x="126" y="106" width="6" height="6" fill="white"/>
<rect opacity="0.2" x="85" y="106" width="6" height="6" fill="white"/>
<rect opacity="0.2" x="43" y="106" width="6" height="6" fill="white"/>
<rect opacity="0.2" x="126" y="53" width="6" height="6" fill="black"/>
<rect opacity="0.2" x="168" y="53" width="6" height="6" fill="black"/>
<rect opacity="0.2" x="209" y="53" width="6" height="6" fill="black"/>
<rect opacity="0.2" x="251" y="53" width="6" height="6" fill="black"/>
<rect opacity="0.2" x="126" width="6" height="6" fill="black"/>
<rect opacity="0.2" x="168" width="6" height="6" fill="black"/>
<rect opacity="0.2" x="209" width="6" height="6" fill="black"/>
<rect opacity="0.2" x="251" width="6" height="6" fill="black"/>
<rect opacity="0.2" x="85" y="53" width="6" height="6" fill="black"/>
<rect opacity="0.2" x="43" y="53" width="6" height="6" fill="black"/>
<rect opacity="0.2" x="43" width="6" height="6" fill="black"/>
<rect opacity="0.2" x="85" width="6" height="6" fill="black"/>
<rect opacity="0.2" x="1" width="6" height="6" fill="black"/>
<rect opacity="0.2" x="209" y="159" width="6" height="6" fill="white"/>
<rect opacity="0.2" x="209" y="106" width="6" height="6" fill="white"/>
<rect opacity="0.2" x="43" y="159" width="6" height="6" fill="white"/>
<rect opacity="0.2" x="168" y="159" width="6" height="6" fill="white"/>
<rect opacity="0.2" x="168" y="106" width="6" height="6" fill="white"/>
<rect opacity="0.2" x="251" y="159" width="6" height="6" fill="white"/>
<rect x="250" y="105" width="7" height="7" fill="#44D7B6"/>
</svg>
