<svg width="165" height="257" viewBox="0 0 165 257" fill="none" xmlns="http://www.w3.org/2000/svg">
<rect x="7" y="84" width="7" height="7" transform="rotate(90 7 84)" fill="#44D7B6"/>
<rect x="113" width="7" height="7" transform="rotate(90 113 0)" fill="#44D7B6"/>
<rect opacity="0.2" x="59" y="1" width="6" height="6" transform="rotate(90 59 1)" fill="white"/>
<rect opacity="0.2" x="6" y="1" width="6" height="6" transform="rotate(90 6 1)" fill="white"/>
<rect opacity="0.2" x="6" y="126" width="6" height="6" transform="rotate(90 6 126)" fill="white"/>
<rect opacity="0.2" x="59" y="126" width="6" height="6" transform="rotate(90 59 126)" fill="white"/>
<rect opacity="0.2" x="59" y="85" width="6" height="6" transform="rotate(90 59 85)" fill="white"/>
<rect opacity="0.2" x="59" y="43" width="6" height="6" transform="rotate(90 59 43)" fill="white"/>
<rect opacity="0.2" x="112" y="126" width="6" height="6" transform="rotate(90 112 126)" fill="white"/>
<rect opacity="0.2" x="112" y="168" width="6" height="6" transform="rotate(90 112 168)" fill="white"/>
<rect opacity="0.2" x="112" y="209" width="6" height="6" transform="rotate(90 112 209)" fill="white"/>
<rect opacity="0.2" x="112" y="251" width="6" height="6" transform="rotate(90 112 251)" fill="white"/>
<rect opacity="0.2" x="165" y="126" width="6" height="6" transform="rotate(90 165 126)" fill="white"/>
<rect opacity="0.2" x="165" y="168" width="6" height="6" transform="rotate(90 165 168)" fill="white"/>
<rect opacity="0.2" x="165" y="209" width="6" height="6" transform="rotate(90 165 209)" fill="white"/>
<rect opacity="0.2" x="165" y="251" width="6" height="6" transform="rotate(90 165 251)" fill="white"/>
<rect opacity="0.2" x="112" y="85" width="6" height="6" transform="rotate(90 112 85)" fill="white"/>
<rect opacity="0.2" x="112" y="43" width="6" height="6" transform="rotate(90 112 43)" fill="white"/>
<rect opacity="0.2" x="165" y="43" width="6" height="6" transform="rotate(90 165 43)" fill="white"/>
<rect opacity="0.2" x="165" y="85" width="6" height="6" transform="rotate(90 165 85)" fill="white"/>
<rect opacity="0.2" x="165" y="1" width="6" height="6" transform="rotate(90 165 1)" fill="white"/>
<rect opacity="0.2" x="6" y="209" width="6" height="6" transform="rotate(90 6 209)" fill="white"/>
<rect opacity="0.2" x="59" y="209" width="6" height="6" transform="rotate(90 59 209)" fill="white"/>
<rect opacity="0.2" x="6" y="43" width="6" height="6" transform="rotate(90 6 43)" fill="white"/>
<rect opacity="0.2" x="6" y="168" width="6" height="6" transform="rotate(90 6 168)" fill="white"/>
<rect opacity="0.2" x="59" y="168" width="6" height="6" transform="rotate(90 59 168)" fill="white"/>
<rect opacity="0.2" x="6" y="251" width="6" height="6" transform="rotate(90 6 251)" fill="white"/>
<rect x="60" y="250" width="7" height="7" transform="rotate(90 60 250)" fill="#44D7B6"/>
</svg>
