<svg width="113" height="292" viewBox="0 0 113 292" fill="none" xmlns="http://www.w3.org/2000/svg">
<rect x="7" y="244" width="7" height="7" transform="rotate(90 7 244)" fill="#44D7B6"/>
<rect x="113" y="160" width="7" height="7" transform="rotate(90 113 160)" fill="#44D7B6"/>
<rect opacity="0.2" x="59" y="161" width="6" height="6" transform="rotate(90 59 161)" fill="white"/>
<rect opacity="0.2" x="6" y="161" width="6" height="6" transform="rotate(90 6 161)" fill="white"/>
<rect opacity="0.2" x="6" y="286" width="6" height="6" transform="rotate(90 6 286)" fill="white"/>
<rect opacity="0.2" x="59" y="286" width="6" height="6" transform="rotate(90 59 286)" fill="white"/>
<rect opacity="0.2" x="59" y="245" width="6" height="6" transform="rotate(90 59 245)" fill="white"/>
<rect opacity="0.2" x="59" y="203" width="6" height="6" transform="rotate(90 59 203)" fill="white"/>
<rect opacity="0.2" x="59" y="120" width="6" height="6" transform="rotate(90 59 120)" fill="white"/>
<rect opacity="0.2" x="59" y="80" width="6" height="6" transform="rotate(90 59 80)" fill="white"/>
<rect opacity="0.2" x="59" y="40" width="6" height="6" transform="rotate(90 59 40)" fill="white"/>
<rect opacity="0.2" x="59" width="6" height="6" transform="rotate(90 59 0)" fill="white"/>
<rect opacity="0.2" x="112" y="286" width="6" height="6" transform="rotate(90 112 286)" fill="white"/>
<rect opacity="0.2" x="112" y="245" width="6" height="6" transform="rotate(90 112 245)" fill="white"/>
<rect opacity="0.2" x="112" y="203" width="6" height="6" transform="rotate(90 112 203)" fill="white"/>
<rect opacity="0.2" x="112" y="120" width="6" height="6" transform="rotate(90 112 120)" fill="white"/>
<rect opacity="0.2" x="112" y="80" width="6" height="6" transform="rotate(90 112 80)" fill="white"/>
<rect opacity="0.2" x="112" y="40" width="6" height="6" transform="rotate(90 112 40)" fill="white"/>
<rect opacity="0.2" x="112" width="6" height="6" transform="rotate(90 112 0)" fill="white"/>
<rect opacity="0.2" x="6" y="203" width="6" height="6" transform="rotate(90 6 203)" fill="white"/>
<rect opacity="0.2" x="6" y="120" width="6" height="6" transform="rotate(90 6 120)" fill="white"/>
<rect opacity="0.2" x="6" y="80" width="6" height="6" transform="rotate(90 6 80)" fill="white"/>
<rect x="6" y="40" width="6" height="6" transform="rotate(90 6 40)" fill="#44D7B6"/>
<rect opacity="0.2" x="6" width="6" height="6" transform="rotate(90 6 0)" fill="white"/>
</svg>
