<svg width="113" height="132" viewBox="0 0 113 132" fill="none" xmlns="http://www.w3.org/2000/svg">
<rect x="7" y="84" width="7" height="7" transform="rotate(90 7 84)" fill="#44D7B6"/>
<rect x="113" width="7" height="7" transform="rotate(90 113 0)" fill="#44D7B6"/>
<rect opacity="0.2" x="59" y="1" width="6" height="6" transform="rotate(90 59 1)" fill="black"/>
<rect opacity="0.2" x="6" y="1" width="6" height="6" transform="rotate(90 6 1)" fill="black"/>
<rect opacity="0.2" x="6" y="126" width="6" height="6" transform="rotate(90 6 126)" fill="black"/>
<rect opacity="0.2" x="59" y="126" width="6" height="6" transform="rotate(90 59 126)" fill="black"/>
<rect opacity="0.2" x="59" y="85" width="6" height="6" transform="rotate(90 59 85)" fill="black"/>
<rect opacity="0.2" x="59" y="43" width="6" height="6" transform="rotate(90 59 43)" fill="black"/>
<rect opacity="0.2" x="112" y="126" width="6" height="6" transform="rotate(90 112 126)" fill="black"/>
<rect opacity="0.2" x="112" y="85" width="6" height="6" transform="rotate(90 112 85)" fill="black"/>
<rect opacity="0.2" x="112" y="43" width="6" height="6" transform="rotate(90 112 43)" fill="black"/>
<rect opacity="0.2" x="6" y="43" width="6" height="6" transform="rotate(90 6 43)" fill="black"/>
</svg>
