<svg width="105" height="15" viewBox="0 0 105 15" fill="none" xmlns="http://www.w3.org/2000/svg">
<path d="M13.3488 7.15855C13.3488 7.79227 13.3216 8.2902 13.2673 8.65233H3.76145C4.08736 10.4086 5.1828 11.2868 7.04775 11.2868C8.0255 11.2868 8.71354 11.0424 9.11188 10.5535H13.05C12.6155 11.7666 11.855 12.7172 10.7686 13.4052C9.70033 14.0752 8.45099 14.4101 7.02059 14.4101C4.97457 14.4101 3.30879 13.7674 2.02324 12.4818C0.755793 11.1963 0.12207 9.57575 0.12207 7.62027C0.12207 5.66478 0.74674 4.04426 1.99608 2.75871C3.24542 1.45505 4.84783 0.803222 6.80332 0.803222C8.72259 0.803222 10.2888 1.39168 11.5019 2.56859C12.7331 3.7274 13.3488 5.25739 13.3488 7.15855ZM6.83048 3.81793C5.21901 3.81793 4.22316 4.62366 3.84293 6.23513H9.73655C9.55548 4.62366 8.58679 3.81793 6.83048 3.81793Z" fill="white"/>
<path d="M26.4564 0.803222C28.1946 0.803222 29.5798 1.37357 30.6118 2.51427C31.662 3.63687 32.1871 5.14875 32.1871 7.04992V14.0842H28.6292V7.26719C28.6292 6.21702 28.3757 5.42034 27.8687 4.87715C27.3617 4.31585 26.6375 4.03521 25.696 4.03521C24.6458 4.03521 23.6499 4.58745 22.7084 5.69194V14.0842H19.1505V1.12914H22.7084V2.10688C23.7948 1.23777 25.0441 0.803222 26.4564 0.803222Z" fill="white"/>
<path d="M41.0583 9.60291C41.2574 10.8885 42.1899 11.5312 43.8557 11.5312C45.3947 11.5312 46.1643 11.1691 46.1643 10.4449C46.1643 9.86545 45.7207 9.49427 44.8335 9.33132L42.036 8.84244C40.9315 8.66138 40.0172 8.26304 39.2929 7.64742C38.5687 7.03181 38.2065 6.1627 38.2065 5.04011C38.2065 3.71835 38.7135 2.67723 39.7275 1.91676C40.7414 1.1563 42.0813 0.776062 43.7471 0.776062C47.3321 0.776062 49.2423 2.23362 49.4777 5.14875H46.1914C46.119 4.11668 45.3042 3.60065 43.7471 3.60065C42.4072 3.60065 41.7373 3.96278 41.7373 4.68704C41.7373 5.35697 42.2714 5.78247 43.3397 5.96353L45.6754 6.34377C48.2646 6.79643 49.5592 8.05482 49.5592 10.1189C49.5592 11.5131 49.0251 12.5814 47.9568 13.3238C46.8885 14.048 45.4943 14.4101 43.7742 14.4101C43.0138 14.4101 42.3076 14.3287 41.6558 14.1657C41.004 14.0209 40.3883 13.7764 39.8089 13.4324C39.2295 13.0703 38.7588 12.5633 38.3966 11.9115C38.0526 11.2596 37.8444 10.4811 37.772 9.57575L41.0583 9.60291Z" fill="white"/>
<path d="M64.9417 1.12914H68.7169L62.7961 14.0842H59.6999L53.7791 1.12914H57.5543L61.248 9.52143L64.9417 1.12914Z" fill="white"/>
<path d="M85.6112 7.15855C85.6112 7.79227 85.584 8.2902 85.5297 8.65233H76.0238C76.3498 10.4086 77.4452 11.2868 79.3102 11.2868C80.2879 11.2868 80.9759 11.0424 81.3743 10.5535H85.3124C84.8779 11.7666 84.1174 12.7172 83.031 13.4052C81.9627 14.0752 80.7134 14.4101 79.283 14.4101C77.237 14.4101 75.5712 13.7674 74.2856 12.4818C73.0182 11.1963 72.3845 9.57575 72.3845 7.62027C72.3845 5.66478 73.0091 4.04426 74.2585 2.75871C75.5078 1.45505 77.1102 0.803222 79.0657 0.803222C80.985 0.803222 82.5512 1.39168 83.7643 2.56859C84.9955 3.7274 85.6112 5.25739 85.6112 7.15855ZM79.0929 3.81793C77.4814 3.81793 76.4856 4.62366 76.1053 6.23513H81.9989C81.8179 4.62366 80.8492 3.81793 79.0929 3.81793Z" fill="white"/>
<path d="M104.28 7.15855C104.28 7.79227 104.253 8.2902 104.199 8.65233H94.6928C95.0188 10.4086 96.1142 11.2868 97.9791 11.2868C98.9569 11.2868 99.6449 11.0424 100.043 10.5535H103.981C103.547 11.7666 102.786 12.7172 101.7 13.4052C100.632 14.0752 99.3824 14.4101 97.952 14.4101C95.906 14.4101 94.2402 13.7674 92.9546 12.4818C91.6872 11.1963 91.0535 9.57575 91.0535 7.62027C91.0535 5.66478 91.6781 4.04426 92.9275 2.75871C94.1768 1.45505 95.7792 0.803222 97.7347 0.803222C99.654 0.803222 101.22 1.39168 102.433 2.56859C103.665 3.7274 104.28 5.25739 104.28 7.15855ZM97.7619 3.81793C96.1504 3.81793 95.1546 4.62366 94.7743 6.23513H100.668C100.487 4.62366 99.5182 3.81793 97.7619 3.81793Z" fill="white"/>
</svg>
