<svg width="25" height="25" viewBox="0 0 25 25" fill="none" xmlns="http://www.w3.org/2000/svg">
<path fill-rule="evenodd" clip-rule="evenodd" d="M2 0C0.895431 0 0 0.89543 0 2V23C0 24.1046 0.89543 25 2 25H23C24.1046 25 25 24.1046 25 23V2C25 0.895431 24.1046 0 23 0H2ZM12.4162 16.2936V24.9999H16.4271V16.2936H19.3441L19.9518 12.5451H16.4271V10.0058C16.4271 9.44147 16.7431 8.31287 18.0071 8.31287H19.9518V5.04801H15.9409C14.2393 5.04801 12.5377 7.10367 12.5377 8.79656V12.5451H9.13452V16.2936H12.4162Z" fill="white"/>
</svg>
