<svg width="20" height="21" viewBox="0 0 20 21" fill="none" xmlns="http://www.w3.org/2000/svg">
<path fill-rule="evenodd" clip-rule="evenodd" d="M0 10.9749C0 5.96746 4.01113 1.89687 8.99561 1.8009V4.32039C5.40236 4.41583 2.5188 7.35862 2.5188 10.9749C2.5188 14.6514 5.4992 17.6318 9.1757 17.6318C12.8522 17.6318 15.8326 14.6514 15.8326 10.9749C15.8326 10.9147 15.8318 10.8548 15.8302 10.795H18.3497C18.3509 10.8548 18.3515 10.9148 18.3515 10.9749C18.3515 16.0425 14.2433 20.1506 9.17573 20.1506C4.10811 20.1506 0 16.0425 0 10.9749Z" fill="url(#paint0_linear)"/>
<path fill-rule="evenodd" clip-rule="evenodd" d="M15.0671 2.73706C11.5073 4.77134 8.27541 6.61826 6.6551 8.00427C5.66265 8.85321 4.09808 11.1696 5.77941 13.6436C7.46074 16.1177 10.4498 14.917 11.7341 14.0075C13.2633 12.8409 14.9571 9.44974 16.8471 5.66577C17.7792 3.79946 18.7591 1.8376 19.7905 0C18.2244 0.932781 16.6147 1.85263 15.0671 2.73706ZM13.3137 6.47696C11.2169 7.69291 8.76105 9.2081 8.18771 9.71678C7.80041 10.0604 7.18985 10.998 7.84598 11.9994C8.50211 13.0008 9.66856 12.5148 10.1698 12.1466C10.7964 11.6864 11.9786 9.23969 13.0834 6.9534C13.1606 6.79356 13.2375 6.6345 13.3137 6.47696Z" fill="#EE33AA"/>
<path fill-rule="evenodd" clip-rule="evenodd" d="M15.0671 2.73706C11.5073 4.77134 8.27541 6.61826 6.6551 8.00427C5.66265 8.85321 4.09808 11.1696 5.77941 13.6436C7.46074 16.1177 10.4498 14.917 11.7341 14.0075C13.2633 12.8409 14.9571 9.44974 16.8471 5.66577C17.7792 3.79946 18.7591 1.8376 19.7905 0C18.2244 0.932781 16.6147 1.85263 15.0671 2.73706ZM13.3137 6.47696C11.2169 7.69291 8.76105 9.2081 8.18771 9.71678C7.80041 10.0604 7.18985 10.998 7.84598 11.9994C8.50211 13.0008 9.66856 12.5148 10.1698 12.1466C10.7964 11.6864 11.9786 9.23969 13.0834 6.9534C13.1606 6.79356 13.2375 6.6345 13.3137 6.47696Z" fill="#44D5BA"/>
<defs>
<linearGradient id="paint0_linear" x1="18.3515" y1="10.9758" x2="0" y2="10.9758" gradientUnits="userSpaceOnUse">
<stop stop-color="#44D7B6"/>
<stop offset="1" stop-color="#3BB0EA"/>
</linearGradient>
</defs>
</svg>
