<svg width="20" height="21" viewBox="0 0 20 21" fill="none" xmlns="http://www.w3.org/2000/svg">
<circle cx="9.17573" cy="10.9749" r="9.17573" fill="url(#paint0_linear)"/>
<circle cx="9.1757" cy="10.9749" r="6.6569" fill="black"/>
<rect x="8.99561" y="1.0795" width="9.71548" height="9.71548" fill="black"/>
<path d="M6.6551 8.00427C8.97987 6.01568 14.6222 3.07827 19.7905 0C16.668 5.56337 14.0175 12.2656 11.7341 14.0075C10.4498 14.917 7.46074 16.1177 5.77941 13.6436C4.09808 11.1696 5.66265 8.85321 6.6551 8.00427Z" fill="#EE33AA"/>
<path d="M6.6551 8.00427C8.97987 6.01568 14.6222 3.07827 19.7905 0C16.668 5.56337 14.0175 12.2656 11.7341 14.0075C10.4498 14.917 7.46074 16.1177 5.77941 13.6436C4.09808 11.1696 5.66265 8.85321 6.6551 8.00427Z" fill="#44D5BA"/>
<path d="M8.18771 9.71678C8.76105 9.2081 11.2169 7.69291 13.3137 6.47696C12.1467 8.88786 10.8402 11.6542 10.1698 12.1466C9.66856 12.5148 8.50211 13.0008 7.84598 11.9994C7.18985 10.998 7.80041 10.0604 8.18771 9.71678Z" fill="#EE33AA"/>
<path d="M8.18771 9.71678C8.76105 9.2081 11.2169 7.69291 13.3137 6.47696C12.1467 8.88786 10.8402 11.6542 10.1698 12.1466C9.66856 12.5148 8.50211 13.0008 7.84598 11.9994C7.18985 10.998 7.80041 10.0604 8.18771 9.71678Z" fill="#0A0426"/>
<defs>
<linearGradient id="paint0_linear" x1="18.3515" y1="10.9749" x2="0" y2="10.9749" gradientUnits="userSpaceOnUse">
<stop stop-color="#44D7B6"/>
<stop offset="1" stop-color="#3BB0EA"/>
</linearGradient>
</defs>
</svg>
