<svg width="28" height="29" viewBox="0 0 28 29" fill="none" xmlns="http://www.w3.org/2000/svg">
<g filter="url(#filter0_d)">
<path fill-rule="evenodd" clip-rule="evenodd" d="M4 10.9749C4 5.96746 8.01113 1.89687 12.9956 1.8009V4.32039C9.40236 4.41583 6.5188 7.35862 6.5188 10.9749C6.5188 14.6514 9.4992 17.6318 13.1757 17.6318C16.8522 17.6318 19.8326 14.6514 19.8326 10.9749C19.8326 10.9147 19.8318 10.8548 19.8302 10.795H22.3497C22.3509 10.8548 22.3515 10.9148 22.3515 10.9749C22.3515 16.0425 18.2433 20.1506 13.1757 20.1506C8.10811 20.1506 4 16.0425 4 10.9749Z" fill="url(#paint0_linear)"/>
<path fill-rule="evenodd" clip-rule="evenodd" d="M19.0671 2.73706C15.5073 4.77134 12.2754 6.61826 10.6551 8.00427C9.66265 8.85321 8.09808 11.1696 9.77941 13.6436C11.4607 16.1177 14.4498 14.917 15.7341 14.0075C17.2633 12.8409 18.9571 9.44974 20.8471 5.66577C21.7792 3.79946 22.7591 1.8376 23.7905 0C22.2244 0.932781 20.6147 1.85263 19.0671 2.73706ZM17.3137 6.47696C15.2169 7.69291 12.7611 9.2081 12.1877 9.71678C11.8004 10.0604 11.1898 10.998 11.846 11.9994C12.5021 13.0008 13.6686 12.5148 14.1698 12.1466C14.7964 11.6864 15.9786 9.23969 17.0834 6.9534C17.1606 6.79356 17.2375 6.6345 17.3137 6.47696Z" fill="#EE33AA"/>
<path fill-rule="evenodd" clip-rule="evenodd" d="M19.0671 2.73706C15.5073 4.77134 12.2754 6.61826 10.6551 8.00427C9.66265 8.85321 8.09808 11.1696 9.77941 13.6436C11.4607 16.1177 14.4498 14.917 15.7341 14.0075C17.2633 12.8409 18.9571 9.44974 20.8471 5.66577C21.7792 3.79946 22.7591 1.8376 23.7905 0C22.2244 0.932781 20.6147 1.85263 19.0671 2.73706ZM17.3137 6.47696C15.2169 7.69291 12.7611 9.2081 12.1877 9.71678C11.8004 10.0604 11.1898 10.998 11.846 11.9994C12.5021 13.0008 13.6686 12.5148 14.1698 12.1466C14.7964 11.6864 15.9786 9.23969 17.0834 6.9534C17.1606 6.79356 17.2375 6.6345 17.3137 6.47696Z" fill="#44D5BA"/>
</g>
<defs>
<filter id="filter0_d" x="0" y="0" width="27.7905" height="28.1506" filterUnits="userSpaceOnUse" color-interpolation-filters="sRGB">
<feFlood flood-opacity="0" result="BackgroundImageFix"/>
<feColorMatrix in="SourceAlpha" type="matrix" values="0 0 0 0 0 0 0 0 0 0 0 0 0 0 0 0 0 0 127 0"/>
<feOffset dy="4"/>
<feGaussianBlur stdDeviation="2"/>
<feColorMatrix type="matrix" values="0 0 0 0 0 0 0 0 0 0 0 0 0 0 0 0 0 0 0.25 0"/>
<feBlend mode="normal" in2="BackgroundImageFix" result="effect1_dropShadow"/>
<feBlend mode="normal" in="SourceGraphic" in2="effect1_dropShadow" result="shape"/>
</filter>
<linearGradient id="paint0_linear" x1="22.3515" y1="10.9758" x2="4" y2="10.9758" gradientUnits="userSpaceOnUse">
<stop stop-color="#44D7B6"/>
<stop offset="1" stop-color="#3BB0EA"/>
</linearGradient>
</defs>
</svg>
