<svg width="30" height="30" viewBox="0 0 30 30" fill="none" xmlns="http://www.w3.org/2000/svg">
<circle cx="14" cy="16" r="14" fill="white"/>
<ellipse cx="14" cy="16.5" rx="10" ry="10.5" fill="#1CB898"/>
<path d="M9.52205 12.1815C13.1463 9.15509 21.9427 4.68473 30 0C25.132 8.46673 21 18.6667 17.4402 21.3176C15.4379 22.7018 10.778 24.5291 8.15686 20.7639C5.53568 16.9987 7.97483 13.4734 9.52205 12.1815Z" fill="white"/>
<path d="M11.9869 14.7667C12.8832 14.0183 16.7222 11.789 20 10C18.1756 13.5471 16.1333 17.6171 15.0853 18.3417C14.3018 18.8833 12.4784 19.5983 11.4527 18.125C10.427 16.6517 11.3815 15.2722 11.9869 14.7667Z" fill="#EE33AA"/>
<path d="M11.9869 14.7667C12.8832 14.0183 16.7222 11.789 20 10C18.1756 13.5471 16.1333 17.6171 15.0853 18.3417C14.3018 18.8833 12.4784 19.5983 11.4527 18.125C10.427 16.6517 11.3815 15.2722 11.9869 14.7667Z" fill="#1CB898"/>
</svg>
